<?xml version="1.0" encoding="UTF-8" standalone="no"?>
<!-- Created with Inkscape (http://www.inkscape.org/) -->

<svg
   xmlns:dc="http://purl.org/dc/elements/1.1/"
   xmlns:cc="http://creativecommons.org/ns#"
   xmlns:rdf="http://www.w3.org/1999/02/22-rdf-syntax-ns#"
   xmlns:svg="http://www.w3.org/2000/svg"
   xmlns="http://www.w3.org/2000/svg"
   xmlns:xlink="http://www.w3.org/1999/xlink"
   xmlns:sodipodi="http://sodipodi.sourceforge.net/DTD/sodipodi-0.dtd"
   xmlns:inkscape="http://www.inkscape.org/namespaces/inkscape"
   width="744.09448819"
   height="1052.3622047"
   id="svg2"
   version="1.1"
   inkscape:version="0.48.0 r9654"
   sodipodi:docname="New document 1">
  <defs
     id="defs4">
    <linearGradient
       inkscape:collect="always"
       id="linearGradient3794">
      <stop
         style="stop-color:#800000;stop-opacity:1;"
         offset="0"
         id="stop3796" />
      <stop
         style="stop-color:#800000;stop-opacity:0;"
         offset="1"
         id="stop3798" />
    </linearGradient>
    <linearGradient
       inkscape:collect="always"
       id="linearGradient3786">
      <stop
         style="stop-color:#ff7f2a;stop-opacity:1;"
         offset="0"
         id="stop3788" />
      <stop
         style="stop-color:#ff7f2a;stop-opacity:0;"
         offset="1"
         id="stop3790" />
    </linearGradient>
    <linearGradient
       inkscape:collect="always"
       id="linearGradient3776">
      <stop
         style="stop-color:#ffffff;stop-opacity:1;"
         offset="0"
         id="stop3778" />
      <stop
         style="stop-color:#ffffff;stop-opacity:0;"
         offset="1"
         id="stop3780" />
    </linearGradient>
    <linearGradient
       inkscape:collect="always"
       xlink:href="#linearGradient3776"
       id="linearGradient3782"
       x1="363.21646"
       y1="207.02696"
       x2="346.07144"
       y2="269.68362"
       gradientUnits="userSpaceOnUse" />
    <linearGradient
       inkscape:collect="always"
       xlink:href="#linearGradient3786"
       id="linearGradient3792"
       x1="323.12256"
       y1="223.65828"
       x2="323.12256"
       y2="304.85086"
       gradientUnits="userSpaceOnUse" />
    <linearGradient
       inkscape:collect="always"
       xlink:href="#linearGradient3794"
       id="linearGradient3800"
       x1="320.89285"
       y1="285.75504"
       x2="320.89285"
       y2="209.67607"
       gradientUnits="userSpaceOnUse" />
  </defs>
  <sodipodi:namedview
     id="base"
     pagecolor="#ffffff"
     bordercolor="#666666"
     borderopacity="1.0"
     inkscape:pageopacity="0.0"
     inkscape:pageshadow="2"
     inkscape:zoom="3.959798"
     inkscape:cx="360.03764"
     inkscape:cy="798.8718"
     inkscape:document-units="px"
     inkscape:current-layer="layer1"
     showgrid="false"
     inkscape:window-width="1280"
     inkscape:window-height="738"
     inkscape:window-x="-8"
     inkscape:window-y="-8"
     inkscape:window-maximized="0" />
  <metadata
     id="metadata7">
    <rdf:RDF>
      <cc:Work
         rdf:about="">
        <dc:format>image/svg+xml</dc:format>
        <dc:type
           rdf:resource="http://purl.org/dc/dcmitype/StillImage" />
        <dc:title></dc:title>
      </cc:Work>
    </rdf:RDF>
  </metadata>
  <g
     inkscape:label="Layer 1"
     inkscape:groupmode="layer"
     id="layer1">
    <rect
       style="fill:#008000;fill-opacity:1;stroke:none"
       id="rect3774"
       width="118.69292"
       height="100.25764"
       x="418.44827"
       y="206.68068" />
    <path
       style="fill:#800000;stroke:none;opacity:0.55309735"
       d="M 342.4375 217.96875 C 320.67972 217.96875 303.03125 235.61722 303.03125 257.375 C 303.03125 279.13278 320.67972 296.78125 342.4375 296.78125 C 364.19528 296.78125 381.84375 279.13278 381.84375 257.375 C 381.84375 235.61722 364.19528 217.96875 342.4375 217.96875 z M 342.4375 222.625 C 361.63177 222.625 377.1875 238.18073 377.1875 257.375 C 377.1875 276.56927 361.63177 292.125 342.4375 292.125 C 323.24323 292.125 307.6875 276.56927 307.6875 257.375 C 307.6875 238.18073 323.24323 222.625 342.4375 222.625 z "
       id="path2985" />
    <path
       id="path3763"
       d="m 342.4375,219.04018 c -21.1662,0 -38.33482,17.16862 -38.33482,38.33482 0,21.1662 17.16862,38.33482 38.33482,38.33482 21.1662,0 38.33482,-17.16862 38.33482,-38.33482 0,-21.1662 -17.16862,-38.33482 -38.33482,-38.33482 z m 0,4.52965 c 18.67239,0 33.80517,15.13278 33.80517,33.80517 0,18.67239 -15.13278,33.80517 -33.80517,33.80517 -18.67239,0 -33.80517,-15.13278 -33.80517,-33.80517 0,-18.67239 15.13278,-33.80517 33.80517,-33.80517 z"
       style="opacity:0.55309735000000004;fill:url(#linearGradient3792);stroke:none;fill-opacity:1"
       inkscape:connector-curvature="0" />
    <path
       inkscape:connector-curvature="0"
       style="opacity:0.55309735000000004;fill:url(#linearGradient3800);stroke:none;fill-opacity:1"
       d="m 342.4375,221.18304 c -19.98304,0 -36.19196,16.20892 -36.19196,36.19196 0,19.98304 16.20892,36.19196 36.19196,36.19196 19.98304,0 36.19196,-16.20892 36.19196,-36.19196 0,-19.98304 -16.20892,-36.19196 -36.19196,-36.19196 z m 0,4.27645 c 17.62863,0 31.91551,14.28688 31.91551,31.91551 0,17.62863 -14.28688,31.91551 -31.91551,31.91551 -17.62863,0 -31.91551,-14.28688 -31.91551,-31.91551 0,-17.62863 14.28688,-31.91551 31.91551,-31.91551 z"
       id="path3765" />
    <path
       sodipodi:type="arc"
       style="opacity:0.41150441;fill:#ffffff;fill-opacity:1;stroke:none"
       id="path3767"
       sodipodi:cx="358.47787"
       sodipodi:cy="267.09485"
       sodipodi:rx="30.178307"
       sodipodi:ry="30.178307"
       d="m 388.65618,267.09485 a 30.178307,30.178307 0 1 1 -60.35661,0 30.178307,30.178307 0 1 1 60.35661,0 z"
       transform="matrix(1.0543933,0,0,1.0543933,-35.534969,-24.250893)" />
    <path
       style="opacity:0.67256637;fill:url(#linearGradient3782);fill-opacity:1;stroke:none"
       d="m 342.43749,225.5625 c -9.01767,0 -17.14738,3.75419 -22.93749,9.78125 2.06671,15.57607 15.39027,27.59375 31.53125,27.59375 9.01768,0 17.1474,-3.78544 22.9375,-9.8125 -2.08017,-15.56115 -15.40088,-27.5625 -31.53126,-27.5625 z"
       id="path3769"
       inkscape:connector-curvature="0" />
    <path
       sodipodi:type="arc"
       style="opacity:0.25663715;fill:#ffffff;fill-opacity:1;stroke:none"
       id="path3784"
       sodipodi:cx="325.89285"
       sodipodi:cy="254.32646"
       sodipodi:rx="6.7857141"
       sodipodi:ry="6.7857141"
       d="m 332.67857,254.32646 a 6.7857141,6.7857141 0 1 1 -13.57143,0 6.7857141,6.7857141 0 1 1 13.57143,0 z"
       transform="matrix(0.60526315,0,0,0.60526315,128.28477,123.24917)" />
  </g>
</svg>
